PathFileType	4	(X/Y/Z)	\\147.46.242.158\로컬 디스크 (e)\MOCAP Data\Iguana Capture\iguana\Project 2\Capture day 6 after broken\Session 2\Take05 good walk.trc
DataRate	CameraRate	NumFrames	NumMarkers	Units	OrigDataRate	OrigDataStartFrame	OrigNumFrames
120.0	120.0	9	23	mm	120.0	409	5093
Frame#	Time	ana:head1			ana:head2			ana:bone1			ana:bone2			ana:bone3			ana:tail1			ana:tail2			ana:tail3			ana:tail4			ana:Rforefoot1			ana:Rforefoot2			ana:Rforefoot3			ana:Lforefoot1			ana:Lforefoot2			ana:Lforefoot3			ana:RhindLeg1			ana:RhindLeg2			ana:RhindLeg3			ana:RhindLeg4			ana:LhindLeg1			ana:LhindLeg2			ana:LhindLeg3			ana:LhindLeg4			
		X1	Y1	Z1	X2	Y2	Z2	X3	Y3	Z3	X4	Y4	Z4	X5	Y5	Z5	X6	Y6	Z6	X7	Y7	Z7	X8	Y8	Z8	X9	Y9	Z9	X10	Y10	Z10	X11	Y11	Z11	X12	Y12	Z12	X13	Y13	Z13	X14	Y14	Z14	X15	Y15	Z15	X16	Y16	Z16	X17	Y17	Z17	X18	Y18	Z18	X19	Y19	Z19	X20	Y20	Z20	X21	Y21	Z21	X22	Y22	Z22	X23	Y23	Z23	

4408	36.725	-474.15604	-289.16769	53.13403	-469.93134	-279.04346	52.56565	-465.82813	-259.08041	45.48348	-464.03949	-232.65341	43.97252	-460.43875	-195.76204	37.90009	-450.85818	-164.99146	30.34980	-447.15649	-132.18661	21.40705	-442.74417	-87.85224	12.71743	-441.05243	-54.27293	11.02533	-477.76880	-262.94406	29.47050	-490.38184	-260.62701	20.31038	-486.17502	-273.02911	7.61761	-452.75394	-260.61121	29.90736	-443.55420	-248.41211	25.14502	-441.49692	-258.92249	18.36070	-466.85574	-190.19165	31.50021	-476.79428	-178.19649	28.51836	-475.82809	-157.91064	24.33671	-482.53558	-155.80116	13.29802	-449.24966	-199.87561	31.13072	-438.41458	-212.67749	27.08150	-434.67484	-200.97174	14.25451	-432.56244	-217.75740	8.99075	
4409	36.733	-474.25671	-289.79514	53.26004	-470.01431	-279.66656	52.66867	-465.78995	-259.70120	45.51785	-463.78302	-233.32730	44.00446	-460.36880	-196.42479	37.92933	-451.09772	-165.54431	30.34977	-447.44479	-132.73523	21.36907	-442.90918	-88.41560	12.69611	-441.08643	-54.87941	11.00616	-477.81244	-263.39130	29.55508	-490.35406	-260.68686	20.36809	-486.19952	-273.04575	7.68151	-452.82291	-261.52008	30.19385	-443.38467	-249.39853	25.59284	-441.25000	-259.34409	18.32865	-466.81647	-190.92432	31.57863	-476.83493	-178.97725	28.65811	-476.10855	-158.65358	24.58390	-482.69354	-156.10727	13.57950	-449.12589	-200.36389	31.08715	-438.07043	-212.89934	26.86717	-434.39438	-201.19835	14.24972	-432.53296	-217.78467	8.95801	
4410	36.742	-474.35992	-290.40805	53.40026	-470.10281	-280.27606	52.78282	-465.77393	-260.31479	45.56358	-463.54230	-233.98199	44.05501	-460.29132	-197.07661	37.95704	-451.31702	-166.09505	30.33328	-447.71515	-133.28549	21.31217	-443.06027	-88.97746	12.67357	-441.12811	-55.48325	10.99169	-477.87268	-263.83557	29.65705	-490.31659	-260.75302	20.43024	-486.21255	-273.06714	7.74831	-452.92062	-262.41998	30.51151	-443.23636	-250.37808	26.10146	-441.00574	-259.76706	18.29991	-466.77399	-191.65010	31.65122	-476.87726	-179.74533	28.79213	-476.38678	-159.39392	24.81724	-482.85291	-156.42299	13.87054	-449.00378	-200.85297	31.04881	-437.72183	-213.10666	26.63330	-434.12326	-201.47400	14.16423	-432.51697	-217.77786	8.92900	
4411	36.750	-474.46835	-291.00745	53.55080	-470.20059	-280.87372	52.90604	-465.78177	-260.92328	45.61950	-463.31906	-234.61929	44.12395	-460.20755	-197.71710	37.98743	-451.51593	-166.64236	30.31154	-447.96747	-133.83481	21.24888	-443.19946	-89.53597	12.65428	-441.17990	-56.07940	10.98308	-477.94955	-264.27609	29.77171	-490.26831	-260.82510	20.49073	-486.21283	-273.08978	7.80297	-453.04611	-263.31198	30.84992	-443.11423	-251.34944	26.66374	-440.76437	-260.19150	18.27479	-466.72873	-192.36783	31.72208	-476.92096	-180.50244	28.92374	-476.66763	-160.13020	25.04219	-483.01556	-156.74971	14.16854	-448.88354	-201.34366	31.02447	-437.37552	-213.30231	26.39403	-433.87756	-201.77647	14.00996	-432.51532	-217.74501	8.91000	
4412	36.758	-474.58475	-291.59396	53.70751	-470.31076	-281.46051	53.03585	-465.81381	-261.52747	45.68464	-463.11401	-235.24097	44.20966	-460.11945	-198.34602	38.02405	-451.69604	-167.18489	30.29542	-448.20319	-134.38046	21.19120	-443.32996	-90.08931	12.64178	-441.24255	-56.66377	10.98030	-478.04199	-264.71085	29.89364	-490.21005	-260.90210	20.54520	-486.20074	-273.10968	7.83308	-453.19717	-264.19681	31.19893	-443.02142	-252.31390	27.27145	-440.52618	-260.61755	18.25363	-466.68173	-193.07576	31.79519	-476.96634	-181.25075	29.05610	-476.95474	-160.86127	25.26307	-483.18118	-157.08853	14.46888	-448.76559	-201.83588	31.02067	-437.03821	-213.48837	26.16255	-433.67126	-202.08781	13.80239	-432.52658	-217.69653	8.90448	
4413	36.767	-474.71146	-292.16797	53.86639	-470.43521	-282.03647	53.16976	-465.86871	-262.12692	45.75814	-462.92694	-235.84903	44.30925	-460.02899	-198.96330	38.06923	-451.86020	-167.72165	30.29398	-448.42471	-134.92015	21.14899	-443.45596	-90.63612	12.63819	-441.31555	-57.23396	10.98206	-478.14792	-265.13718	30.01733	-490.14444	-260.98285	20.59173	-486.17828	-273.12262	7.83041	-453.37067	-265.07407	31.54954	-442.95877	-253.27547	27.91566	-440.29141	-261.04538	18.23673	-466.63412	-193.77199	31.87370	-477.01340	-181.99252	29.19154	-477.24884	-161.58647	25.48223	-483.34686	-157.44016	14.76489	-448.65045	-202.32890	31.04070	-436.71521	-213.66656	25.94940	-433.51474	-202.39505	13.55814	-432.54758	-217.64363	8.91286	
4414	36.775	-474.85040	-292.72961	54.02395	-470.57486	-282.60120	53.30541	-465.94360	-262.72040	45.83929	-462.75635	-236.44553	44.41882	-459.93790	-199.56941	38.12373	-452.01175	-168.25246	30.31333	-448.63455	-135.45262	21.12880	-443.58160	-91.17597	12.64394	-441.39688	-57.78969	10.98602	-478.26419	-265.55212	30.13775	-490.07510	-261.06616	20.63107	-486.14822	-273.12485	7.79167	-453.56229	-265.94250	31.89461	-442.92523	-254.24081	28.58694	-440.06030	-261.47507	18.22443	-466.58661	-194.45485	31.95948	-477.06177	-182.72974	29.33126	-477.54739	-162.30550	25.69945	-483.50693	-157.80458	15.04821	-448.53857	-202.82169	31.08407	-436.40967	-213.83817	25.76126	-433.41473	-202.69017	13.29296	-432.57388	-217.59695	8.93282	
4415	36.783	-475.00296	-293.27908	54.17734	-470.72940	-283.15396	53.44073	-466.03430	-263.30621	45.92722	-462.59982	-237.03275	44.53380	-459.84714	-200.16551	38.18671	-452.15417	-168.77812	30.35607	-448.83514	-135.97795	21.13334	-443.71042	-91.70960	12.65784	-441.48340	-58.33303	10.98901	-478.38715	-265.95337	30.25081	-490.00644	-261.15115	20.66632	-486.11362	-273.11365	7.71854	-453.76691	-266.79996	32.22912	-442.91791	-255.21837	29.27559	-439.83313	-261.90680	18.21703	-466.53943	-195.12347	32.05273	-477.11066	-183.46390	29.47495	-477.84448	-163.01851	25.91188	-483.65320	-158.18114	15.30947	-448.42999	-203.31322	31.14655	-436.12207	-214.00436	25.60039	-433.37430	-202.96935	13.02000	-432.60065	-217.56494	8.96000	
4416	36.792	-475.16937	-293.81693	54.32439	-470.89749	-283.69424	53.57403	-466.13559	-263.88281	46.02082	-462.45386	-237.61327	44.64935	-459.75705	-200.75360	38.25582	-452.29031	-169.30066	30.42120	-449.02802	-136.49779	21.16157	-443.84467	-92.23906	12.67741	-441.57123	-58.86820	10.98746	-478.51276	-266.33957	30.35369	-489.94244	-261.23727	20.70232	-486.07736	-273.08749	7.61693	-453.97891	-267.64365	32.55013	-442.93250	-256.21722	29.97167	-439.61017	-262.34064	18.21487	-466.49234	-195.77797	32.15200	-477.15845	-184.19589	29.62081	-478.13141	-163.72600	26.11446	-483.77603	-158.56862	15.53929	-448.32419	-203.80287	31.22080	-435.84998	-214.16646	25.46460	-433.39304	-203.23155	12.74878	-432.62350	-217.55325	8.98903	
